<svg width="24" height="24" viewBox="0 0 24 24" fill="none" xmlns="http://www.w3.org/2000/svg">
<path d="M0 12C0 5.37258 5.37258 0 12 0C18.6274 0 24 5.37258 24 12C24 18.6274 18.6274 24 12 24C5.37258 24 0 18.6274 0 12Z" fill="#C02C3D"/>
<path d="M14 8.66667C14 8.48986 14.0702 8.32029 14.1952 8.19526C14.3202 8.07024 14.4898 8 14.6666 8C14.8434 8 15.013 8.07024 15.138 8.19526C15.2631 8.32029 15.3333 8.48986 15.3333 8.66667V15.3333C15.3333 15.5101 15.2631 15.6797 15.138 15.8047C15.013 15.9298 14.8434 16 14.6666 16C14.4898 16 14.3202 15.9298 14.1952 15.8047C14.0702 15.6797 14 15.5101 14 15.3333V8.66667ZM8.66663 8.66667C8.66663 8.48986 8.73686 8.32029 8.86189 8.19526C8.98691 8.07024 9.15648 8 9.33329 8C9.5101 8 9.67967 8.07024 9.8047 8.19526C9.92972 8.32029 9.99996 8.48986 9.99996 8.66667V15.3333C9.99996 15.5101 9.92972 15.6797 9.8047 15.8047C9.67967 15.9298 9.5101 16 9.33329 16C9.15648 16 8.98691 15.9298 8.86189 15.8047C8.73686 15.6797 8.66663 15.5101 8.66663 15.3333V8.66667Z" fill="white"/>
</svg>
