<svg width="24" height="24" viewBox="0 0 24 24" fill="none" xmlns="http://www.w3.org/2000/svg">
<path d="M0 12C0 5.37258 5.37258 0 12 0C18.6274 0 24 5.37258 24 12C24 18.6274 18.6274 24 12 24C5.37258 24 0 18.6274 0 12Z" fill="#C02C3D"/>
<g clip-path="url(#clip0_436_1469)">
<path d="M10.001 8.30301L15.6053 11.5723C15.6455 11.5959 15.6788 11.6295 15.7019 11.6698C15.7251 11.7102 15.7373 11.7559 15.7373 11.8025C15.7373 11.849 15.7251 11.8947 15.7019 11.9351C15.6788 11.9755 15.6455 12.0091 15.6053 12.0326L10.001 15.3019C9.96044 15.3256 9.91429 15.3382 9.86728 15.3383C9.82027 15.3384 9.77406 15.3261 9.73335 15.3026C9.69263 15.2791 9.65885 15.2452 9.63543 15.2045C9.61201 15.1637 9.59978 15.1175 9.59998 15.0705V8.53341C9.59996 8.48649 9.61233 8.44039 9.63583 8.39978C9.65933 8.35917 9.69313 8.32547 9.73381 8.3021C9.7745 8.27873 9.82063 8.2665 9.86755 8.26666C9.91447 8.26682 9.96052 8.27936 10.001 8.30301Z" fill="white"/>
</g>
<defs>
<clipPath id="clip0_436_1469">
<rect width="12.8" height="12.8" fill="white" transform="translate(6.40002 5.59998)"/>
</clipPath>
</defs>
</svg>
