<svg width="88" height="30" viewBox="0 0 88 30" fill="none" xmlns="http://www.w3.org/2000/svg">
<path d="M0 15C0 6.71573 6.71573 0 15 0H73C81.2843 0 88 6.71573 88 15C88 23.2843 81.2843 30 73 30H15C6.71573 30 0 23.2843 0 15Z" fill="#C02C3D"/>
<path d="M34.8398 11.8281V10.2344H33.3281V11.8281C33.3223 13.8965 32.4141 15.9414 30.5508 16.7266L31.4531 17.9688C32.7539 17.377 33.627 16.2168 34.1074 14.7754C34.5938 16.0938 35.4375 17.1602 36.6562 17.7109L37.5352 16.5156C35.7246 15.748 34.834 13.7852 34.8398 11.8281ZM38.1094 20.1016H39.6211V9.41406H38.1094V20.1016ZM50.0508 9.41406H48.5625V12.543H47.1797V13.7617H48.5625V15.8594H50.0508V9.41406ZM41.0859 11.5352H47.3672V10.3398H44.9766V9.32031H43.5V10.3398H41.0859V11.5352ZM41.6719 13.7969C41.6719 14.9629 42.7441 15.7246 44.2383 15.7305C45.7324 15.7246 46.793 14.9629 46.793 13.7969C46.793 12.6836 45.7383 11.8867 44.2383 11.8867C42.7441 11.8867 41.6719 12.6836 41.6719 13.7969ZM42.8789 19.9609H50.0508V16.3164H42.8789V19.9609ZM43.1133 13.7969C43.1016 13.293 43.541 13.0059 44.2383 13.0117C44.918 13.0059 45.3633 13.293 45.3633 13.7969C45.3633 14.3359 44.918 14.623 44.2383 14.6289C43.541 14.623 43.1016 14.3359 43.1133 13.7969ZM44.3789 18.7656V17.4883H48.5859V18.7656H44.3789ZM58.3477 11.8281V10.2344H56.8359V11.8281C56.8301 13.8965 55.9219 15.9414 54.0586 16.7266L54.9609 17.9688C56.2617 17.377 57.1348 16.2168 57.6152 14.7754C58.1016 16.0938 58.9453 17.1602 60.1641 17.7109L61.043 16.5156C59.2324 15.748 58.3418 13.7852 58.3477 11.8281ZM61.6172 20.1016H63.1289V9.41406H61.6172V20.1016ZM70.6289 10.0352H64.8164V11.2305H66.9961C66.9785 12.5605 66.1699 13.9316 64.4062 14.5L65.2031 15.6484C66.4395 15.2441 67.2949 14.4121 67.7695 13.375C68.2324 14.3242 69.0469 15.0859 70.2305 15.4727L70.9922 14.3125C69.2637 13.7617 68.5137 12.4785 68.5078 11.2305H70.6289V10.0352ZM65.8477 17.4883H71.5312V20.0781H73.0312V16.3047H65.8477V17.4883ZM71.5312 15.8477H73.0312V13.2461H74.4727V12.0039H73.0312V9.41406H71.5312V15.8477Z" fill="white"/>
<path d="M17.5013 10.3787L24.5067 14.4654C24.5569 14.4948 24.5985 14.5368 24.6274 14.5873C24.6564 14.6377 24.6716 14.6949 24.6716 14.7531C24.6716 14.8113 24.6564 14.8684 24.6274 14.9189C24.5985 14.9693 24.5569 15.0114 24.5067 15.0407L17.5013 19.1274C17.4506 19.157 17.3929 19.1727 17.3341 19.1728C17.2754 19.173 17.2176 19.1576 17.1667 19.1282C17.1158 19.0988 17.0736 19.0565 17.0443 19.0056C17.015 18.9546 16.9998 18.8968 17 18.8381V10.6667C17 10.6081 17.0154 10.5505 17.0448 10.4997C17.0742 10.4489 17.1164 10.4068 17.1673 10.3776C17.2182 10.3484 17.2758 10.3331 17.3345 10.3333C17.3931 10.3335 17.4507 10.3492 17.5013 10.3787Z" fill="white"/>
</svg>
