<svg width="88" height="30" viewBox="0 0 88 30" fill="none" xmlns="http://www.w3.org/2000/svg">
<path d="M0 15C0 6.71573 6.71573 0 15 0H73C81.2843 0 88 6.71573 88 15C88 23.2843 81.2843 30 73 30H15C6.71573 30 0 23.2843 0 15Z" fill="#C02C3D"/>
<path d="M34.6094 9.73047C32.9629 9.72461 31.7383 10.7441 31.7383 12.168C31.7383 13.5801 32.9629 14.5879 34.6094 14.5938C36.2324 14.5879 37.4512 13.5801 37.457 12.168C37.4512 10.7441 36.2324 9.72461 34.6094 9.73047ZM33.1914 12.168C33.1797 11.4004 33.7891 10.9492 34.6094 10.9492C35.418 10.9492 36.0098 11.4004 36.0156 12.168C36.0098 12.9297 35.418 13.3809 34.6094 13.3867C33.7832 13.3809 33.1797 12.9297 33.1914 12.168ZM33.3438 16.3516H39.0156V17.0078H33.3672V19.9609H40.7969V18.7891H34.832V18.0977H40.5039V15.2031H33.3438V16.3516ZM39.0039 14.7578H40.5039V9.41406H39.0039V14.7578ZM46.0938 11.8281V10.2344H44.582V11.8281C44.5762 13.8965 43.668 15.9414 41.8047 16.7266L42.707 17.9688C44.0078 17.377 44.8809 16.2168 45.3613 14.7754C45.8477 16.0938 46.6914 17.1602 47.9102 17.7109L48.7891 16.5156C46.9785 15.748 46.0879 13.7852 46.0938 11.8281ZM49.3633 20.1016H50.875V9.41406H49.3633V20.1016ZM61.3047 9.41406H59.8164V12.0156H58.1523V13.2227H59.8164V15.7422H61.3047V9.41406ZM52.2461 14.5703L53.0195 15.7539C54.2852 15.3203 55.1406 14.4473 55.6094 13.3633C56.0723 14.3184 56.8867 15.0918 58.0586 15.4727L58.7969 14.3008C57.1387 13.75 56.377 12.4961 56.3477 11.2539H58.4688V10.0586H52.6797V11.2539H54.8242C54.7891 12.5898 53.9922 13.9844 52.2461 14.5703ZM53.9922 18.0391C53.9922 19.334 55.3867 20.0898 57.6602 20.0898C59.9395 20.0898 61.334 19.334 61.3398 18.0391C61.334 16.7441 59.9395 15.9824 57.6602 15.9766C55.3867 15.9824 53.9922 16.7441 53.9922 18.0391ZM55.4805 18.0391C55.4805 17.4238 56.248 17.1191 57.6602 17.125C59.0781 17.1191 59.8457 17.4238 59.8516 18.0391C59.8457 18.6484 59.0781 18.9531 57.6602 18.9531C56.248 18.9531 55.4805 18.6484 55.4805 18.0391ZM66.8242 12.3203V11.6641H69.0508V10.4453H63.0273V11.6641H65.2891V12.3203C65.2891 14.125 64.375 16.0996 62.6055 16.8906L63.4609 18.0742C64.7207 17.4941 65.6055 16.3223 66.0859 14.9219C66.5664 16.2109 67.4336 17.2715 68.6875 17.8047L69.4961 16.6328C67.709 15.8887 66.8184 14.043 66.8242 12.3203ZM70.1055 20.0781H71.6172V9.41406H70.1055V20.0781Z" fill="white"/>
<path d="M22 11.6667C22 11.4899 22.0703 11.3203 22.1953 11.1953C22.3203 11.0702 22.4899 11 22.6667 11C22.8435 11 23.0131 11.0702 23.1381 11.1953C23.2631 11.3203 23.3334 11.4899 23.3334 11.6667V18.3333C23.3334 18.5101 23.2631 18.6797 23.1381 18.8047C23.0131 18.9298 22.8435 19 22.6667 19C22.4899 19 22.3203 18.9298 22.1953 18.8047C22.0703 18.6797 22 18.5101 22 18.3333V11.6667ZM16.6667 11.6667C16.6667 11.4899 16.7369 11.3203 16.8619 11.1953C16.987 11.0702 17.1565 11 17.3334 11C17.5102 11 17.6797 11.0702 17.8048 11.1953C17.9298 11.3203 18 11.4899 18 11.6667V18.3333C18 18.5101 17.9298 18.6797 17.8048 18.8047C17.6797 18.9298 17.5102 19 17.3334 19C17.1565 19 16.987 18.9298 16.8619 18.8047C16.7369 18.6797 16.6667 18.5101 16.6667 18.3333V11.6667Z" fill="white"/>
</svg>
